<?xml version="1.0" encoding="UTF-8" standalone="no"?>
<!-- Created with Inkscape (http://www.inkscape.org/) -->

<svg
   width="1500"
   height="200"
   viewBox="0 0 1500 200"
   version="1.1"
   id="svg1"
   inkscape:version="1.4.3 (0d15f75, 2025-12-25)"
   sodipodi:docname="title.svg"
   inkscape:export-filename="title.png"
   inkscape:export-xdpi="96"
   inkscape:export-ydpi="96"
   xmlns:inkscape="http://www.inkscape.org/namespaces/inkscape"
   xmlns:sodipodi="http://sodipodi.sourceforge.net/DTD/sodipodi-0.dtd"
   xmlns="http://www.w3.org/2000/svg"
   xmlns:svg="http://www.w3.org/2000/svg">
  <sodipodi:namedview
     id="namedview1"
     pagecolor="#ffffff"
     bordercolor="#000000"
     borderopacity="0.25"
     inkscape:showpageshadow="2"
     inkscape:pageopacity="0.0"
     inkscape:pagecheckerboard="0"
     inkscape:deskcolor="#d1d1d1"
     inkscape:document-units="px"
     inkscape:zoom="0.68977136"
     inkscape:cx="587.87596"
     inkscape:cy="71.76291"
     inkscape:window-width="2560"
     inkscape:window-height="1334"
     inkscape:window-x="-11"
     inkscape:window-y="-11"
     inkscape:window-maximized="1"
     inkscape:current-layer="layer1" />
  <defs
     id="defs1" />
  <g
     inkscape:label="Warstwa 1"
     inkscape:groupmode="layer"
     id="layer1">
    <path
       d="m 107.40122,18.33345 c -52.033254,0 -81.433211,30.33329 -81.433211,81.43322 0,60.90345 17.523846,81.89988 81.198961,81.89988 H 240.40103 V 81.80003 h -69.2999 v 36.63327 h 29.63329 v 24.49997 l -93.56745,-2.4e-4 c -34.357221,0 -41.765685,-10.21726 -41.765685,-41.76611 0,-34.53328 9.566652,-44.33353 42.699935,-44.33353 H 239.4677 V 18.33345 Z m 366.79955,0 H 267.00108 v 82.13321 c 0,49.93326 31.03329,81.19989 81.66654,81.19989 H 474.20077 V 142.93327 H 349.36762 c -24.26663,0 -35.69994,-8.63332 -40.59994,-24.49997 h 161.2331 V 81.80003 H 306.66769 V 56.83339 h 167.53308 z m 199.26634,81.43322 c 0,33.83328 -10.73332,43.1666 -42.69994,43.1666 h -94.7332 v -42.46661 c 0,-33.59995 10.03332,-43.63327 42.69994,-43.63327 h 94.7332 z m -95.4332,-81.43322 c -51.56659,0 -81.66655,31.49996 -81.66655,81.43322 v 81.89988 H 631.7005 c 51.79992,0 81.43321,-30.33329 81.43321,-81.19989 V 18.33345 Z M 801.10006,118.4333 h 49.69993 l 62.99991,63.23325 h 48.06659 l -62.06657,-63.93324 c 40.13327,-4.2 60.19991,-26.8333 60.19991,-68.13324 V 18.33345 H 743.00015 v 163.3331 h 39.6666 V 56.83339 h 138.83314 c -2.33333,16.09998 -11.43332,24.96664 -27.5333,24.96664 H 801.10006 Z M 1028.3663,18.33345 h -39.66663 v 163.3331 h 39.66663 z m 215.833,63.46658 h -144.6665 c 4.9,-16.09998 16.3333,-24.96664 40.5999,-24.96664 h 117.1332 V 18.33345 h -117.8332 c -51.5665,0 -81.6665,31.49996 -81.6665,81.43322 v 81.89988 h 39.6666 V 118.4333 h 146.7665 z M 1474.032,18.33345 h -136.0331 c -44.5666,0 -68.3666,20.99997 -71.8666,63.46658 h 37.5666 c 1.4,-16.79998 10.7333,-24.96664 28,-24.96664 h 27.5333 v 124.83316 h 39.6666 V 56.83339 h 75.1332 z"
       id="text1"
       style="font-size:233.333px;font-family:Xirod;-inkscape-font-specification:'Xirod, Normal';stroke-width:1.00157"
       aria-label="GeoRift"
       sodipodi:nodetypes="ssccccccccssccsccssccscccccccsscsscssscsscscccccsccccccscccccccccsccssccccccsccscccccc" />
  </g>
</svg>
